<mxfile host="app.diagrams.net" agent="Mozilla/5.0 (Windows NT 10.0; Win64; x64) AppleWebKit/537.36 (KHTML, like Gecko) Chrome/135.0.0.0 Safari/537.36" version="26.2.12">
  <diagram name="Page-1" id="OZMEXE9qiZKhC_GyDNDu">
    <mxGraphModel dx="2040" dy="1726" grid="1" gridSize="10" guides="1" tooltips="1" connect="1" arrows="1" fold="1" page="1" pageScale="1" pageWidth="850" pageHeight="1100" math="0" shadow="0">
      <root>
        <mxCell id="0" />
        <mxCell id="1" parent="0" />
        <mxCell id="uKL7S93gOn8IDhQJY8BF-62" value="" style="rounded=0;whiteSpace=wrap;html=1;dashed=1;" parent="1" vertex="1">
          <mxGeometry x="410" y="5" width="280" height="145" as="geometry" />
        </mxCell>
        <mxCell id="uKL7S93gOn8IDhQJY8BF-28" value="Node" style="rounded=0;whiteSpace=wrap;html=1;" parent="1" vertex="1">
          <mxGeometry x="160" y="80" width="80" height="80" as="geometry" />
        </mxCell>
        <mxCell id="uKL7S93gOn8IDhQJY8BF-29" value="A" style="text;html=1;align=center;verticalAlign=middle;whiteSpace=wrap;rounded=0;" parent="1" vertex="1">
          <mxGeometry x="160" y="80" width="20" height="30" as="geometry" />
        </mxCell>
        <mxCell id="uKL7S93gOn8IDhQJY8BF-31" value="B" style="text;html=1;align=center;verticalAlign=middle;whiteSpace=wrap;rounded=0;" parent="1" vertex="1">
          <mxGeometry x="160" y="130" width="20" height="30" as="geometry" />
        </mxCell>
        <mxCell id="uKL7S93gOn8IDhQJY8BF-33" value="min" style="text;html=1;align=center;verticalAlign=middle;whiteSpace=wrap;rounded=0;" parent="1" vertex="1">
          <mxGeometry x="210" y="80" width="30" height="30" as="geometry" />
        </mxCell>
        <mxCell id="uKL7S93gOn8IDhQJY8BF-34" value="max" style="text;html=1;align=center;verticalAlign=middle;whiteSpace=wrap;rounded=0;" parent="1" vertex="1">
          <mxGeometry x="210" y="130" width="30" height="30" as="geometry" />
        </mxCell>
        <mxCell id="uKL7S93gOn8IDhQJY8BF-35" value="" style="endArrow=classic;html=1;rounded=0;entryX=0;entryY=0.5;entryDx=0;entryDy=0;" parent="1" target="uKL7S93gOn8IDhQJY8BF-29" edge="1">
          <mxGeometry width="50" height="50" relative="1" as="geometry">
            <mxPoint x="120" y="95" as="sourcePoint" />
            <mxPoint x="120" y="80" as="targetPoint" />
          </mxGeometry>
        </mxCell>
        <mxCell id="uKL7S93gOn8IDhQJY8BF-36" value="" style="endArrow=classic;html=1;rounded=0;entryX=0;entryY=0.5;entryDx=0;entryDy=0;" parent="1" edge="1">
          <mxGeometry width="50" height="50" relative="1" as="geometry">
            <mxPoint x="120" y="144.8" as="sourcePoint" />
            <mxPoint x="160" y="144.8" as="targetPoint" />
          </mxGeometry>
        </mxCell>
        <mxCell id="uKL7S93gOn8IDhQJY8BF-37" value="" style="endArrow=classic;html=1;rounded=0;entryX=0;entryY=0.5;entryDx=0;entryDy=0;" parent="1" edge="1">
          <mxGeometry width="50" height="50" relative="1" as="geometry">
            <mxPoint x="240" y="94.80000000000001" as="sourcePoint" />
            <mxPoint x="280" y="94.80000000000001" as="targetPoint" />
          </mxGeometry>
        </mxCell>
        <mxCell id="uKL7S93gOn8IDhQJY8BF-38" value="" style="endArrow=classic;html=1;rounded=0;entryX=0;entryY=0.5;entryDx=0;entryDy=0;" parent="1" edge="1">
          <mxGeometry width="50" height="50" relative="1" as="geometry">
            <mxPoint x="240" y="144.8" as="sourcePoint" />
            <mxPoint x="280" y="144.8" as="targetPoint" />
          </mxGeometry>
        </mxCell>
        <mxCell id="uKL7S93gOn8IDhQJY8BF-42" value="" style="endArrow=none;html=1;rounded=0;" parent="1" edge="1">
          <mxGeometry width="50" height="50" relative="1" as="geometry">
            <mxPoint x="380" y="40" as="sourcePoint" />
            <mxPoint x="460" y="40" as="targetPoint" />
          </mxGeometry>
        </mxCell>
        <mxCell id="uKL7S93gOn8IDhQJY8BF-43" value="" style="endArrow=none;html=1;rounded=0;" parent="1" edge="1">
          <mxGeometry width="50" height="50" relative="1" as="geometry">
            <mxPoint x="380" y="80" as="sourcePoint" />
            <mxPoint x="460" y="80" as="targetPoint" />
          </mxGeometry>
        </mxCell>
        <mxCell id="uKL7S93gOn8IDhQJY8BF-44" value="" style="endArrow=none;html=1;rounded=0;entryX=0.02;entryY=0.847;entryDx=0;entryDy=0;entryPerimeter=0;" parent="1" target="uKL7S93gOn8IDhQJY8BF-50" edge="1">
          <mxGeometry width="50" height="50" relative="1" as="geometry">
            <mxPoint x="380" y="120" as="sourcePoint" />
            <mxPoint x="460" y="120" as="targetPoint" />
          </mxGeometry>
        </mxCell>
        <mxCell id="uKL7S93gOn8IDhQJY8BF-45" value="S1" style="text;html=1;align=center;verticalAlign=middle;whiteSpace=wrap;rounded=0;" parent="1" vertex="1">
          <mxGeometry x="330" y="20" width="60" height="30" as="geometry" />
        </mxCell>
        <mxCell id="uKL7S93gOn8IDhQJY8BF-46" value="S2" style="text;html=1;align=center;verticalAlign=middle;whiteSpace=wrap;rounded=0;" parent="1" vertex="1">
          <mxGeometry x="330" y="50" width="60" height="30" as="geometry" />
        </mxCell>
        <mxCell id="uKL7S93gOn8IDhQJY8BF-47" value="S3" style="text;html=1;align=center;verticalAlign=middle;whiteSpace=wrap;rounded=0;" parent="1" vertex="1">
          <mxGeometry x="330" y="90" width="60" height="30" as="geometry" />
        </mxCell>
        <mxCell id="uKL7S93gOn8IDhQJY8BF-48" value="N1" style="rounded=0;whiteSpace=wrap;html=1;" parent="1" vertex="1">
          <mxGeometry x="462" y="30" width="40" height="60" as="geometry" />
        </mxCell>
        <mxCell id="uKL7S93gOn8IDhQJY8BF-49" value="" style="endArrow=none;html=1;rounded=0;exitX=0.99;exitY=0.84;exitDx=0;exitDy=0;exitPerimeter=0;" parent="1" source="uKL7S93gOn8IDhQJY8BF-48" edge="1">
          <mxGeometry width="50" height="50" relative="1" as="geometry">
            <mxPoint x="560" y="120" as="sourcePoint" />
            <mxPoint x="540" y="80" as="targetPoint" />
          </mxGeometry>
        </mxCell>
        <mxCell id="uKL7S93gOn8IDhQJY8BF-50" value="N2" style="rounded=0;whiteSpace=wrap;html=1;" parent="1" vertex="1">
          <mxGeometry x="540" y="70" width="40" height="60" as="geometry" />
        </mxCell>
        <mxCell id="uKL7S93gOn8IDhQJY8BF-51" value="N3" style="rounded=0;whiteSpace=wrap;html=1;" parent="1" vertex="1">
          <mxGeometry x="620" y="30" width="40" height="60" as="geometry" />
        </mxCell>
        <mxCell id="uKL7S93gOn8IDhQJY8BF-52" value="" style="endArrow=none;html=1;rounded=0;entryX=-0.04;entryY=0.173;entryDx=0;entryDy=0;entryPerimeter=0;exitX=1.04;exitY=0.167;exitDx=0;exitDy=0;exitPerimeter=0;" parent="1" source="uKL7S93gOn8IDhQJY8BF-48" target="uKL7S93gOn8IDhQJY8BF-51" edge="1">
          <mxGeometry width="50" height="50" relative="1" as="geometry">
            <mxPoint x="535" y="80" as="sourcePoint" />
            <mxPoint x="585" y="30" as="targetPoint" />
          </mxGeometry>
        </mxCell>
        <mxCell id="uKL7S93gOn8IDhQJY8BF-53" value="" style="endArrow=none;html=1;rounded=0;exitX=0.992;exitY=0.167;exitDx=0;exitDy=0;exitPerimeter=0;entryX=0.017;entryY=0.822;entryDx=0;entryDy=0;entryPerimeter=0;" parent="1" source="uKL7S93gOn8IDhQJY8BF-50" target="uKL7S93gOn8IDhQJY8BF-51" edge="1">
          <mxGeometry width="50" height="50" relative="1" as="geometry">
            <mxPoint x="650" y="100" as="sourcePoint" />
            <mxPoint x="700" y="50" as="targetPoint" />
          </mxGeometry>
        </mxCell>
        <mxCell id="uKL7S93gOn8IDhQJY8BF-54" value="" style="endArrow=none;html=1;rounded=0;exitX=0.996;exitY=0.837;exitDx=0;exitDy=0;exitPerimeter=0;" parent="1" source="uKL7S93gOn8IDhQJY8BF-50" edge="1">
          <mxGeometry width="50" height="50" relative="1" as="geometry">
            <mxPoint x="650" y="150" as="sourcePoint" />
            <mxPoint x="720" y="120" as="targetPoint" />
          </mxGeometry>
        </mxCell>
        <mxCell id="uKL7S93gOn8IDhQJY8BF-55" value="" style="endArrow=none;html=1;rounded=0;" parent="1" edge="1">
          <mxGeometry width="50" height="50" relative="1" as="geometry">
            <mxPoint x="661" y="41" as="sourcePoint" />
            <mxPoint x="720" y="41" as="targetPoint" />
          </mxGeometry>
        </mxCell>
        <mxCell id="uKL7S93gOn8IDhQJY8BF-56" value="" style="endArrow=none;html=1;rounded=0;exitX=1.032;exitY=0.181;exitDx=0;exitDy=0;exitPerimeter=0;" parent="1" edge="1">
          <mxGeometry width="50" height="50" relative="1" as="geometry">
            <mxPoint x="660" y="80" as="sourcePoint" />
            <mxPoint x="719" y="80" as="targetPoint" />
          </mxGeometry>
        </mxCell>
        <mxCell id="uKL7S93gOn8IDhQJY8BF-58" value="min" style="text;html=1;align=center;verticalAlign=middle;whiteSpace=wrap;rounded=0;" parent="1" vertex="1">
          <mxGeometry x="720" y="10" width="60" height="30" as="geometry" />
        </mxCell>
        <mxCell id="uKL7S93gOn8IDhQJY8BF-60" value="med" style="text;html=1;align=center;verticalAlign=middle;whiteSpace=wrap;rounded=0;" parent="1" vertex="1">
          <mxGeometry x="720" y="50" width="60" height="30" as="geometry" />
        </mxCell>
        <mxCell id="uKL7S93gOn8IDhQJY8BF-61" value="max" style="text;html=1;align=center;verticalAlign=middle;whiteSpace=wrap;rounded=0;" parent="1" vertex="1">
          <mxGeometry x="720" y="90" width="60" height="30" as="geometry" />
        </mxCell>
        <mxCell id="uKL7S93gOn8IDhQJY8BF-63" value="Sorting_network" style="text;html=1;align=center;verticalAlign=middle;whiteSpace=wrap;rounded=0;" parent="1" vertex="1">
          <mxGeometry x="530" y="-30" width="60" height="30" as="geometry" />
        </mxCell>
        <mxCell id="uKL7S93gOn8IDhQJY8BF-97" value="min1" style="text;html=1;align=center;verticalAlign=middle;whiteSpace=wrap;rounded=0;" parent="1" vertex="1">
          <mxGeometry x="500" y="10" width="60" height="30" as="geometry" />
        </mxCell>
        <mxCell id="uKL7S93gOn8IDhQJY8BF-99" value="max1" style="text;html=1;align=center;verticalAlign=middle;whiteSpace=wrap;rounded=0;" parent="1" vertex="1">
          <mxGeometry x="500" y="45" width="60" height="30" as="geometry" />
        </mxCell>
        <mxCell id="uKL7S93gOn8IDhQJY8BF-100" value="min2" style="text;html=1;align=center;verticalAlign=middle;whiteSpace=wrap;rounded=0;" parent="1" vertex="1">
          <mxGeometry x="569" y="50" width="60" height="30" as="geometry" />
        </mxCell>
        <mxCell id="Paib4hkty35EO20joLLF-1" value="&amp;lt;" style="rounded=0;whiteSpace=wrap;html=1;" parent="1" vertex="1">
          <mxGeometry x="-130" y="40" width="50" height="40" as="geometry" />
        </mxCell>
        <mxCell id="Paib4hkty35EO20joLLF-2" value="" style="endArrow=classic;html=1;rounded=0;entryX=0;entryY=0.25;entryDx=0;entryDy=0;fillColor=#fff2cc;strokeColor=#d6b656;" parent="1" target="Paib4hkty35EO20joLLF-1" edge="1">
          <mxGeometry width="50" height="50" relative="1" as="geometry">
            <mxPoint x="-190" y="50" as="sourcePoint" />
            <mxPoint x="-200" y="2.5" as="targetPoint" />
          </mxGeometry>
        </mxCell>
        <mxCell id="Paib4hkty35EO20joLLF-3" value="" style="endArrow=classic;html=1;rounded=0;entryX=0;entryY=0.75;entryDx=0;entryDy=0;fillColor=#f8cecc;strokeColor=#b85450;" parent="1" edge="1" target="Paib4hkty35EO20joLLF-1">
          <mxGeometry width="50" height="50" relative="1" as="geometry">
            <mxPoint x="-191" y="69.77" as="sourcePoint" />
            <mxPoint x="-150" y="69.77" as="targetPoint" />
          </mxGeometry>
        </mxCell>
        <mxCell id="Paib4hkty35EO20joLLF-5" value="A" style="text;html=1;align=center;verticalAlign=middle;whiteSpace=wrap;rounded=0;" parent="1" vertex="1">
          <mxGeometry x="-240" y="20" width="60" height="30" as="geometry" />
        </mxCell>
        <mxCell id="Paib4hkty35EO20joLLF-7" value="B" style="text;html=1;align=center;verticalAlign=middle;whiteSpace=wrap;rounded=0;" parent="1" vertex="1">
          <mxGeometry x="-240" y="55" width="60" height="30" as="geometry" />
        </mxCell>
        <mxCell id="Paib4hkty35EO20joLLF-8" value="" style="endArrow=classic;html=1;rounded=0;exitX=1;exitY=0.5;exitDx=0;exitDy=0;entryX=1;entryY=0.25;entryDx=0;entryDy=0;" parent="1" source="Paib4hkty35EO20joLLF-1" target="Paib4hkty35EO20joLLF-10" edge="1">
          <mxGeometry width="50" height="50" relative="1" as="geometry">
            <mxPoint x="-90" y="75" as="sourcePoint" />
            <mxPoint x="-60" y="20" as="targetPoint" />
            <Array as="points">
              <mxPoint x="-80" y="60" />
              <mxPoint x="-40" y="60" />
            </Array>
          </mxGeometry>
        </mxCell>
        <mxCell id="Paib4hkty35EO20joLLF-9" value="" style="endArrow=classic;html=1;rounded=0;exitX=1;exitY=0.5;exitDx=0;exitDy=0;entryX=0;entryY=0.25;entryDx=0;entryDy=0;" parent="1" source="Paib4hkty35EO20joLLF-1" target="Ws-m2PA2IL12tjnMowxy-10" edge="1">
          <mxGeometry width="50" height="50" relative="1" as="geometry">
            <mxPoint x="-70" y="80" as="sourcePoint" />
            <mxPoint x="-40" y="100" as="targetPoint" />
            <Array as="points">
              <mxPoint x="-40" y="60" />
              <mxPoint x="-40" y="100" />
              <mxPoint x="-40" y="90" />
            </Array>
          </mxGeometry>
        </mxCell>
        <mxCell id="Paib4hkty35EO20joLLF-10" value="" style="shape=trapezoid;perimeter=trapezoidPerimeter;whiteSpace=wrap;html=1;fixedSize=1;direction=south;" parent="1" vertex="1">
          <mxGeometry x="-60" y="-30" width="30" height="75" as="geometry" />
        </mxCell>
        <mxCell id="KOR-24eh5AWteCG2fDAp-1" value="" style="endArrow=classic;html=1;rounded=0;entryX=-0.077;entryY=0.473;entryDx=0;entryDy=0;fillColor=#f8cecc;strokeColor=#b85450;entryPerimeter=0;" parent="1" edge="1">
          <mxGeometry width="50" height="50" relative="1" as="geometry">
            <mxPoint x="-170" y="70" as="sourcePoint" />
            <mxPoint x="-61.15499999999997" y="99.46000000000004" as="targetPoint" />
            <Array as="points">
              <mxPoint x="-170" y="100" />
            </Array>
          </mxGeometry>
        </mxCell>
        <mxCell id="KOR-24eh5AWteCG2fDAp-2" value="" style="endArrow=classic;html=1;rounded=0;entryX=0.75;entryY=1;entryDx=0;entryDy=0;fillColor=#f8cecc;strokeColor=#b85450;" parent="1" target="Paib4hkty35EO20joLLF-10" edge="1">
          <mxGeometry width="50" height="50" relative="1" as="geometry">
            <mxPoint x="-170" y="70" as="sourcePoint" />
            <mxPoint x="-120" y="-17.5" as="targetPoint" />
            <Array as="points">
              <mxPoint x="-170" y="26" />
            </Array>
          </mxGeometry>
        </mxCell>
        <mxCell id="KOR-24eh5AWteCG2fDAp-3" value="" style="endArrow=classic;html=1;rounded=0;exitX=1;exitY=1;exitDx=0;exitDy=0;entryX=-0.167;entryY=0.531;entryDx=0;entryDy=0;entryPerimeter=0;fillColor=#fff2cc;strokeColor=#d6b656;" parent="1" source="Paib4hkty35EO20joLLF-5" edge="1">
          <mxGeometry width="50" height="50" relative="1" as="geometry">
            <mxPoint x="-150" y="135" as="sourcePoint" />
            <mxPoint x="-62.50499999999988" y="130.6199999999999" as="targetPoint" />
            <Array as="points">
              <mxPoint x="-180" y="131" />
            </Array>
          </mxGeometry>
        </mxCell>
        <mxCell id="KOR-24eh5AWteCG2fDAp-4" value="" style="endArrow=classic;html=1;rounded=0;exitX=1;exitY=1;exitDx=0;exitDy=0;fillColor=#fff2cc;strokeColor=#d6b656;" parent="1" source="Paib4hkty35EO20joLLF-5" edge="1">
          <mxGeometry width="50" height="50" relative="1" as="geometry">
            <mxPoint x="-200" y="20" as="sourcePoint" />
            <mxPoint x="-60" y="-10" as="targetPoint" />
            <Array as="points">
              <mxPoint x="-180" y="-10" />
            </Array>
          </mxGeometry>
        </mxCell>
        <mxCell id="Ws-m2PA2IL12tjnMowxy-1" value="" style="endArrow=classic;html=1;rounded=0;exitX=0.5;exitY=0;exitDx=0;exitDy=0;" edge="1" parent="1" source="Paib4hkty35EO20joLLF-10">
          <mxGeometry width="50" height="50" relative="1" as="geometry">
            <mxPoint x="-10" y="50" as="sourcePoint" />
            <mxPoint x="-10" y="8" as="targetPoint" />
          </mxGeometry>
        </mxCell>
        <mxCell id="Ws-m2PA2IL12tjnMowxy-3" value="1" style="text;html=1;align=center;verticalAlign=middle;whiteSpace=wrap;rounded=0;" vertex="1" parent="1">
          <mxGeometry x="-60" y="-20" width="15" height="20" as="geometry" />
        </mxCell>
        <mxCell id="Ws-m2PA2IL12tjnMowxy-4" value="0" style="text;html=1;align=center;verticalAlign=middle;whiteSpace=wrap;rounded=0;" vertex="1" parent="1">
          <mxGeometry x="-60" y="15" width="15" height="20" as="geometry" />
        </mxCell>
        <mxCell id="Ws-m2PA2IL12tjnMowxy-7" value="min" style="text;html=1;align=center;verticalAlign=middle;whiteSpace=wrap;rounded=0;" vertex="1" parent="1">
          <mxGeometry x="-30" y="-20" width="60" height="30" as="geometry" />
        </mxCell>
        <mxCell id="Ws-m2PA2IL12tjnMowxy-8" value="max" style="text;html=1;align=center;verticalAlign=middle;whiteSpace=wrap;rounded=0;" vertex="1" parent="1">
          <mxGeometry x="-40" y="90" width="60" height="30" as="geometry" />
        </mxCell>
        <mxCell id="Ws-m2PA2IL12tjnMowxy-2" value="" style="endArrow=classic;html=1;rounded=0;exitX=0.5;exitY=0;exitDx=0;exitDy=0;" edge="1" parent="1">
          <mxGeometry width="50" height="50" relative="1" as="geometry">
            <mxPoint x="-30" y="119.99999999999999" as="sourcePoint" />
            <mxPoint x="-10" y="120" as="targetPoint" />
          </mxGeometry>
        </mxCell>
        <mxCell id="Ws-m2PA2IL12tjnMowxy-10" value="" style="shape=trapezoid;perimeter=trapezoidPerimeter;whiteSpace=wrap;html=1;fixedSize=1;direction=south;" vertex="1" parent="1">
          <mxGeometry x="-60" y="80" width="30" height="75" as="geometry" />
        </mxCell>
        <mxCell id="Ws-m2PA2IL12tjnMowxy-11" value="1" style="text;html=1;align=center;verticalAlign=middle;whiteSpace=wrap;rounded=0;" vertex="1" parent="1">
          <mxGeometry x="-60" y="90" width="15" height="20" as="geometry" />
        </mxCell>
        <mxCell id="Ws-m2PA2IL12tjnMowxy-12" value="0" style="text;html=1;align=center;verticalAlign=middle;whiteSpace=wrap;rounded=0;" vertex="1" parent="1">
          <mxGeometry x="-60" y="125" width="15" height="20" as="geometry" />
        </mxCell>
        <mxCell id="Ws-m2PA2IL12tjnMowxy-14" value="10" style="rounded=0;whiteSpace=wrap;html=1;" vertex="1" parent="1">
          <mxGeometry x="-680" y="-640" width="40" height="40" as="geometry" />
        </mxCell>
        <mxCell id="Ws-m2PA2IL12tjnMowxy-15" value="5" style="rounded=0;whiteSpace=wrap;html=1;" vertex="1" parent="1">
          <mxGeometry x="-680" y="-600" width="40" height="40" as="geometry" />
        </mxCell>
        <mxCell id="Ws-m2PA2IL12tjnMowxy-16" value="2" style="rounded=0;whiteSpace=wrap;html=1;" vertex="1" parent="1">
          <mxGeometry x="-680" y="-560" width="40" height="40" as="geometry" />
        </mxCell>
        <mxCell id="Ws-m2PA2IL12tjnMowxy-19" value="9" style="rounded=0;whiteSpace=wrap;html=1;" vertex="1" parent="1">
          <mxGeometry x="-640" y="-640" width="40" height="40" as="geometry" />
        </mxCell>
        <mxCell id="Ws-m2PA2IL12tjnMowxy-20" value="4" style="rounded=0;whiteSpace=wrap;html=1;" vertex="1" parent="1">
          <mxGeometry x="-640" y="-600" width="40" height="40" as="geometry" />
        </mxCell>
        <mxCell id="Ws-m2PA2IL12tjnMowxy-21" value="2" style="rounded=0;whiteSpace=wrap;html=1;" vertex="1" parent="1">
          <mxGeometry x="-640" y="-560" width="40" height="40" as="geometry" />
        </mxCell>
        <mxCell id="Ws-m2PA2IL12tjnMowxy-22" value="2" style="rounded=0;whiteSpace=wrap;html=1;" vertex="1" parent="1">
          <mxGeometry x="-600" y="-640" width="40" height="40" as="geometry" />
        </mxCell>
        <mxCell id="Ws-m2PA2IL12tjnMowxy-23" value="3" style="rounded=0;whiteSpace=wrap;html=1;" vertex="1" parent="1">
          <mxGeometry x="-600" y="-600" width="40" height="40" as="geometry" />
        </mxCell>
        <mxCell id="Ws-m2PA2IL12tjnMowxy-24" value="1" style="rounded=0;whiteSpace=wrap;html=1;" vertex="1" parent="1">
          <mxGeometry x="-600" y="-560" width="40" height="40" as="geometry" />
        </mxCell>
        <mxCell id="Ws-m2PA2IL12tjnMowxy-25" value="" style="shape=flexArrow;endArrow=classic;html=1;rounded=0;" edge="1" parent="1">
          <mxGeometry width="50" height="50" relative="1" as="geometry">
            <mxPoint x="-550" y="-580" as="sourcePoint" />
            <mxPoint x="-500" y="-580" as="targetPoint" />
          </mxGeometry>
        </mxCell>
        <mxCell id="Ws-m2PA2IL12tjnMowxy-26" value="sắp xếp theo hàng" style="text;html=1;align=center;verticalAlign=middle;whiteSpace=wrap;rounded=0;" vertex="1" parent="1">
          <mxGeometry x="-560" y="-630" width="60" height="30" as="geometry" />
        </mxCell>
        <mxCell id="Ws-m2PA2IL12tjnMowxy-27" value="2" style="rounded=0;whiteSpace=wrap;html=1;" vertex="1" parent="1">
          <mxGeometry x="-485" y="-640" width="40" height="40" as="geometry" />
        </mxCell>
        <mxCell id="Ws-m2PA2IL12tjnMowxy-28" value="3" style="rounded=0;whiteSpace=wrap;html=1;" vertex="1" parent="1">
          <mxGeometry x="-485" y="-600" width="40" height="40" as="geometry" />
        </mxCell>
        <mxCell id="Ws-m2PA2IL12tjnMowxy-29" value="1" style="rounded=0;whiteSpace=wrap;html=1;" vertex="1" parent="1">
          <mxGeometry x="-485" y="-560" width="40" height="40" as="geometry" />
        </mxCell>
        <mxCell id="Ws-m2PA2IL12tjnMowxy-30" value="9" style="rounded=0;whiteSpace=wrap;html=1;" vertex="1" parent="1">
          <mxGeometry x="-445" y="-640" width="40" height="40" as="geometry" />
        </mxCell>
        <mxCell id="Ws-m2PA2IL12tjnMowxy-31" value="4" style="rounded=0;whiteSpace=wrap;html=1;" vertex="1" parent="1">
          <mxGeometry x="-445" y="-600" width="40" height="40" as="geometry" />
        </mxCell>
        <mxCell id="Ws-m2PA2IL12tjnMowxy-32" value="2" style="rounded=0;whiteSpace=wrap;html=1;" vertex="1" parent="1">
          <mxGeometry x="-445" y="-560" width="40" height="40" as="geometry" />
        </mxCell>
        <mxCell id="Ws-m2PA2IL12tjnMowxy-33" value="10" style="rounded=0;whiteSpace=wrap;html=1;" vertex="1" parent="1">
          <mxGeometry x="-405" y="-640" width="40" height="40" as="geometry" />
        </mxCell>
        <mxCell id="Ws-m2PA2IL12tjnMowxy-34" value="5" style="rounded=0;whiteSpace=wrap;html=1;" vertex="1" parent="1">
          <mxGeometry x="-405" y="-600" width="40" height="40" as="geometry" />
        </mxCell>
        <mxCell id="Ws-m2PA2IL12tjnMowxy-35" value="2" style="rounded=0;whiteSpace=wrap;html=1;" vertex="1" parent="1">
          <mxGeometry x="-405" y="-560" width="40" height="40" as="geometry" />
        </mxCell>
        <mxCell id="Ws-m2PA2IL12tjnMowxy-36" value="" style="shape=flexArrow;endArrow=classic;html=1;rounded=0;" edge="1" parent="1">
          <mxGeometry width="50" height="50" relative="1" as="geometry">
            <mxPoint x="-360" y="-580.29" as="sourcePoint" />
            <mxPoint x="-310" y="-580.29" as="targetPoint" />
          </mxGeometry>
        </mxCell>
        <mxCell id="Ws-m2PA2IL12tjnMowxy-37" value="sắp xếp theo cột" style="text;html=1;align=center;verticalAlign=middle;whiteSpace=wrap;rounded=0;" vertex="1" parent="1">
          <mxGeometry x="-365" y="-630" width="60" height="30" as="geometry" />
        </mxCell>
        <mxCell id="Ws-m2PA2IL12tjnMowxy-38" value="1" style="rounded=0;whiteSpace=wrap;html=1;" vertex="1" parent="1">
          <mxGeometry x="-300" y="-640" width="40" height="40" as="geometry" />
        </mxCell>
        <mxCell id="Ws-m2PA2IL12tjnMowxy-39" value="2" style="rounded=0;whiteSpace=wrap;html=1;" vertex="1" parent="1">
          <mxGeometry x="-300" y="-600" width="40" height="40" as="geometry" />
        </mxCell>
        <mxCell id="Ws-m2PA2IL12tjnMowxy-40" value="3" style="rounded=0;whiteSpace=wrap;html=1;" vertex="1" parent="1">
          <mxGeometry x="-300" y="-560" width="40" height="40" as="geometry" />
        </mxCell>
        <mxCell id="Ws-m2PA2IL12tjnMowxy-41" value="2" style="rounded=0;whiteSpace=wrap;html=1;" vertex="1" parent="1">
          <mxGeometry x="-260" y="-640" width="40" height="40" as="geometry" />
        </mxCell>
        <mxCell id="Ws-m2PA2IL12tjnMowxy-42" value="4" style="rounded=0;whiteSpace=wrap;html=1;" vertex="1" parent="1">
          <mxGeometry x="-260" y="-600" width="40" height="40" as="geometry" />
        </mxCell>
        <mxCell id="Ws-m2PA2IL12tjnMowxy-43" value="9" style="rounded=0;whiteSpace=wrap;html=1;" vertex="1" parent="1">
          <mxGeometry x="-260" y="-560" width="40" height="40" as="geometry" />
        </mxCell>
        <mxCell id="Ws-m2PA2IL12tjnMowxy-44" value="2" style="rounded=0;whiteSpace=wrap;html=1;" vertex="1" parent="1">
          <mxGeometry x="-220" y="-640" width="40" height="40" as="geometry" />
        </mxCell>
        <mxCell id="Ws-m2PA2IL12tjnMowxy-45" value="5" style="rounded=0;whiteSpace=wrap;html=1;" vertex="1" parent="1">
          <mxGeometry x="-220" y="-600" width="40" height="40" as="geometry" />
        </mxCell>
        <mxCell id="Ws-m2PA2IL12tjnMowxy-46" value="10" style="rounded=0;whiteSpace=wrap;html=1;" vertex="1" parent="1">
          <mxGeometry x="-220" y="-560" width="40" height="40" as="geometry" />
        </mxCell>
        <mxCell id="Ws-m2PA2IL12tjnMowxy-47" value="" style="shape=flexArrow;endArrow=classic;html=1;rounded=0;" edge="1" parent="1">
          <mxGeometry width="50" height="50" relative="1" as="geometry">
            <mxPoint x="-240" y="-510" as="sourcePoint" />
            <mxPoint x="-240" y="-460" as="targetPoint" />
          </mxGeometry>
        </mxCell>
        <mxCell id="Ws-m2PA2IL12tjnMowxy-48" value="1" style="rounded=0;whiteSpace=wrap;html=1;" vertex="1" parent="1">
          <mxGeometry x="-300" y="-440" width="40" height="40" as="geometry" />
        </mxCell>
        <mxCell id="Ws-m2PA2IL12tjnMowxy-49" value="2" style="rounded=0;whiteSpace=wrap;html=1;" vertex="1" parent="1">
          <mxGeometry x="-300" y="-400" width="40" height="40" as="geometry" />
        </mxCell>
        <mxCell id="Ws-m2PA2IL12tjnMowxy-50" value="4" style="rounded=0;whiteSpace=wrap;html=1;fillColor=#ffe6cc;strokeColor=#d79b00;" vertex="1" parent="1">
          <mxGeometry x="-300" y="-360" width="40" height="40" as="geometry" />
        </mxCell>
        <mxCell id="Ws-m2PA2IL12tjnMowxy-51" value="2" style="rounded=0;whiteSpace=wrap;html=1;" vertex="1" parent="1">
          <mxGeometry x="-260" y="-440" width="40" height="40" as="geometry" />
        </mxCell>
        <mxCell id="Ws-m2PA2IL12tjnMowxy-52" value="3" style="rounded=0;whiteSpace=wrap;html=1;fillColor=#ffe6cc;strokeColor=#d79b00;" vertex="1" parent="1">
          <mxGeometry x="-260" y="-400" width="40" height="40" as="geometry" />
        </mxCell>
        <mxCell id="Ws-m2PA2IL12tjnMowxy-53" value="9" style="rounded=0;whiteSpace=wrap;html=1;" vertex="1" parent="1">
          <mxGeometry x="-260" y="-360" width="40" height="40" as="geometry" />
        </mxCell>
        <mxCell id="Ws-m2PA2IL12tjnMowxy-54" value="2" style="rounded=0;whiteSpace=wrap;html=1;fillColor=#ffe6cc;strokeColor=#d79b00;" vertex="1" parent="1">
          <mxGeometry x="-220" y="-440" width="40" height="40" as="geometry" />
        </mxCell>
        <mxCell id="Ws-m2PA2IL12tjnMowxy-55" value="5" style="rounded=0;whiteSpace=wrap;html=1;" vertex="1" parent="1">
          <mxGeometry x="-220" y="-400" width="40" height="40" as="geometry" />
        </mxCell>
        <mxCell id="Ws-m2PA2IL12tjnMowxy-56" value="10" style="rounded=0;whiteSpace=wrap;html=1;" vertex="1" parent="1">
          <mxGeometry x="-220" y="-360" width="40" height="40" as="geometry" />
        </mxCell>
        <mxCell id="Ws-m2PA2IL12tjnMowxy-57" value="sắp xếp đường chéo" style="text;html=1;align=center;verticalAlign=middle;whiteSpace=wrap;rounded=0;" vertex="1" parent="1">
          <mxGeometry x="-210" y="-510" width="60" height="30" as="geometry" />
        </mxCell>
        <mxCell id="Ws-m2PA2IL12tjnMowxy-59" value="" style="shape=flexArrow;endArrow=classic;html=1;rounded=0;" edge="1" parent="1">
          <mxGeometry width="50" height="50" relative="1" as="geometry">
            <mxPoint x="-305" y="-380.34" as="sourcePoint" />
            <mxPoint x="-355" y="-380.34" as="targetPoint" />
          </mxGeometry>
        </mxCell>
        <mxCell id="Ws-m2PA2IL12tjnMowxy-60" value="lấy giá trị giữa" style="text;html=1;align=center;verticalAlign=middle;whiteSpace=wrap;rounded=0;" vertex="1" parent="1">
          <mxGeometry x="-360" y="-435" width="60" height="30" as="geometry" />
        </mxCell>
        <mxCell id="Ws-m2PA2IL12tjnMowxy-61" value="1" style="rounded=0;whiteSpace=wrap;html=1;" vertex="1" parent="1">
          <mxGeometry x="-480" y="-440" width="40" height="40" as="geometry" />
        </mxCell>
        <mxCell id="Ws-m2PA2IL12tjnMowxy-62" value="2" style="rounded=0;whiteSpace=wrap;html=1;" vertex="1" parent="1">
          <mxGeometry x="-480" y="-400" width="40" height="40" as="geometry" />
        </mxCell>
        <mxCell id="Ws-m2PA2IL12tjnMowxy-63" value="4" style="rounded=0;whiteSpace=wrap;html=1;" vertex="1" parent="1">
          <mxGeometry x="-480" y="-360" width="40" height="40" as="geometry" />
        </mxCell>
        <mxCell id="Ws-m2PA2IL12tjnMowxy-64" value="2" style="rounded=0;whiteSpace=wrap;html=1;" vertex="1" parent="1">
          <mxGeometry x="-440" y="-440" width="40" height="40" as="geometry" />
        </mxCell>
        <mxCell id="Ws-m2PA2IL12tjnMowxy-65" value="3" style="rounded=0;whiteSpace=wrap;html=1;fillColor=#fff2cc;strokeColor=#d6b656;" vertex="1" parent="1">
          <mxGeometry x="-440" y="-400" width="40" height="40" as="geometry" />
        </mxCell>
        <mxCell id="Ws-m2PA2IL12tjnMowxy-66" value="9" style="rounded=0;whiteSpace=wrap;html=1;" vertex="1" parent="1">
          <mxGeometry x="-440" y="-360" width="40" height="40" as="geometry" />
        </mxCell>
        <mxCell id="Ws-m2PA2IL12tjnMowxy-67" value="2" style="rounded=0;whiteSpace=wrap;html=1;" vertex="1" parent="1">
          <mxGeometry x="-400" y="-440" width="40" height="40" as="geometry" />
        </mxCell>
        <mxCell id="Ws-m2PA2IL12tjnMowxy-68" value="5" style="rounded=0;whiteSpace=wrap;html=1;" vertex="1" parent="1">
          <mxGeometry x="-400" y="-400" width="40" height="40" as="geometry" />
        </mxCell>
        <mxCell id="Ws-m2PA2IL12tjnMowxy-69" value="10" style="rounded=0;whiteSpace=wrap;html=1;" vertex="1" parent="1">
          <mxGeometry x="-400" y="-360" width="40" height="40" as="geometry" />
        </mxCell>
        <mxCell id="Ws-m2PA2IL12tjnMowxy-83" value="" style="group" vertex="1" connectable="0" parent="1">
          <mxGeometry x="-120" y="205" width="690" height="405" as="geometry" />
        </mxCell>
        <mxCell id="Ws-m2PA2IL12tjnMowxy-82" value="" style="rounded=0;whiteSpace=wrap;html=1;dashed=1;" vertex="1" parent="Ws-m2PA2IL12tjnMowxy-83">
          <mxGeometry x="70" width="560" height="405" as="geometry" />
        </mxCell>
        <mxCell id="uKL7S93gOn8IDhQJY8BF-1" value="" style="endArrow=none;html=1;rounded=0;entryX=0.001;entryY=0.102;entryDx=0;entryDy=0;entryPerimeter=0;" parent="Ws-m2PA2IL12tjnMowxy-83" edge="1" target="uKL7S93gOn8IDhQJY8BF-64">
          <mxGeometry width="50" height="50" relative="1" as="geometry">
            <mxPoint x="60" y="35" as="sourcePoint" />
            <mxPoint x="160" y="36.25" as="targetPoint" />
          </mxGeometry>
        </mxCell>
        <mxCell id="uKL7S93gOn8IDhQJY8BF-2" value="" style="endArrow=none;html=1;rounded=0;entryX=0;entryY=0.5;entryDx=0;entryDy=0;" parent="Ws-m2PA2IL12tjnMowxy-83" edge="1" target="uKL7S93gOn8IDhQJY8BF-64">
          <mxGeometry width="50" height="50" relative="1" as="geometry">
            <mxPoint x="60" y="75" as="sourcePoint" />
            <mxPoint x="160" y="76.25" as="targetPoint" />
          </mxGeometry>
        </mxCell>
        <mxCell id="uKL7S93gOn8IDhQJY8BF-3" value="" style="endArrow=none;html=1;rounded=0;entryX=0;entryY=0.9;entryDx=0;entryDy=0;entryPerimeter=0;" parent="Ws-m2PA2IL12tjnMowxy-83" edge="1" target="uKL7S93gOn8IDhQJY8BF-64">
          <mxGeometry width="50" height="50" relative="1" as="geometry">
            <mxPoint x="60" y="115" as="sourcePoint" />
            <mxPoint x="160" y="117.25" as="targetPoint" />
          </mxGeometry>
        </mxCell>
        <mxCell id="uKL7S93gOn8IDhQJY8BF-5" value="" style="endArrow=none;html=1;rounded=0;entryX=-0.006;entryY=0.12;entryDx=0;entryDy=0;entryPerimeter=0;exitX=1;exitY=1;exitDx=0;exitDy=0;" parent="Ws-m2PA2IL12tjnMowxy-83" edge="1" target="uKL7S93gOn8IDhQJY8BF-80" source="uKL7S93gOn8IDhQJY8BF-16">
          <mxGeometry width="50" height="50" relative="1" as="geometry">
            <mxPoint x="60" y="156" as="sourcePoint" />
            <mxPoint x="160" y="156.25" as="targetPoint" />
          </mxGeometry>
        </mxCell>
        <mxCell id="uKL7S93gOn8IDhQJY8BF-6" value="" style="endArrow=none;html=1;rounded=0;" parent="Ws-m2PA2IL12tjnMowxy-83" edge="1">
          <mxGeometry width="50" height="50" relative="1" as="geometry">
            <mxPoint x="60" y="195" as="sourcePoint" />
            <mxPoint x="119" y="195" as="targetPoint" />
          </mxGeometry>
        </mxCell>
        <mxCell id="uKL7S93gOn8IDhQJY8BF-7" value="" style="endArrow=none;html=1;rounded=0;entryX=-0.008;entryY=0.928;entryDx=0;entryDy=0;entryPerimeter=0;exitX=1;exitY=1;exitDx=0;exitDy=0;" parent="Ws-m2PA2IL12tjnMowxy-83" edge="1" target="uKL7S93gOn8IDhQJY8BF-80" source="uKL7S93gOn8IDhQJY8BF-18">
          <mxGeometry width="50" height="50" relative="1" as="geometry">
            <mxPoint x="60" y="236" as="sourcePoint" />
            <mxPoint x="160" y="236.25" as="targetPoint" />
          </mxGeometry>
        </mxCell>
        <mxCell id="uKL7S93gOn8IDhQJY8BF-8" value="" style="endArrow=none;html=1;rounded=0;entryX=-0.005;entryY=0.086;entryDx=0;entryDy=0;entryPerimeter=0;exitX=1;exitY=1;exitDx=0;exitDy=0;" parent="Ws-m2PA2IL12tjnMowxy-83" edge="1" target="uKL7S93gOn8IDhQJY8BF-87" source="uKL7S93gOn8IDhQJY8BF-19">
          <mxGeometry width="50" height="50" relative="1" as="geometry">
            <mxPoint x="60" y="276" as="sourcePoint" />
            <mxPoint x="160" y="276.25" as="targetPoint" />
          </mxGeometry>
        </mxCell>
        <mxCell id="uKL7S93gOn8IDhQJY8BF-9" value="" style="endArrow=none;html=1;rounded=0;entryX=-0.002;entryY=0.488;entryDx=0;entryDy=0;exitX=1;exitY=1;exitDx=0;exitDy=0;entryPerimeter=0;" parent="Ws-m2PA2IL12tjnMowxy-83" edge="1" target="uKL7S93gOn8IDhQJY8BF-87" source="uKL7S93gOn8IDhQJY8BF-20">
          <mxGeometry width="50" height="50" relative="1" as="geometry">
            <mxPoint x="60" y="316" as="sourcePoint" />
            <mxPoint x="160" y="316.25" as="targetPoint" />
          </mxGeometry>
        </mxCell>
        <mxCell id="uKL7S93gOn8IDhQJY8BF-10" value="" style="endArrow=none;html=1;rounded=0;entryX=-0.005;entryY=0.884;entryDx=0;entryDy=0;entryPerimeter=0;" parent="Ws-m2PA2IL12tjnMowxy-83" edge="1" target="uKL7S93gOn8IDhQJY8BF-87">
          <mxGeometry width="50" height="50" relative="1" as="geometry">
            <mxPoint x="60" y="355" as="sourcePoint" />
            <mxPoint x="160" y="356.25" as="targetPoint" />
          </mxGeometry>
        </mxCell>
        <mxCell id="uKL7S93gOn8IDhQJY8BF-13" value="S1" style="text;html=1;align=center;verticalAlign=middle;whiteSpace=wrap;rounded=0;" parent="Ws-m2PA2IL12tjnMowxy-83" vertex="1">
          <mxGeometry y="15" width="60" height="30" as="geometry" />
        </mxCell>
        <mxCell id="uKL7S93gOn8IDhQJY8BF-14" value="S2" style="text;html=1;align=center;verticalAlign=middle;whiteSpace=wrap;rounded=0;" parent="Ws-m2PA2IL12tjnMowxy-83" vertex="1">
          <mxGeometry y="45" width="60" height="30" as="geometry" />
        </mxCell>
        <mxCell id="uKL7S93gOn8IDhQJY8BF-15" value="S3" style="text;html=1;align=center;verticalAlign=middle;whiteSpace=wrap;rounded=0;" parent="Ws-m2PA2IL12tjnMowxy-83" vertex="1">
          <mxGeometry y="85" width="60" height="30" as="geometry" />
        </mxCell>
        <mxCell id="uKL7S93gOn8IDhQJY8BF-16" value="S4" style="text;html=1;align=center;verticalAlign=middle;whiteSpace=wrap;rounded=0;" parent="Ws-m2PA2IL12tjnMowxy-83" vertex="1">
          <mxGeometry y="125" width="60" height="30" as="geometry" />
        </mxCell>
        <mxCell id="uKL7S93gOn8IDhQJY8BF-17" value="S5" style="text;html=1;align=center;verticalAlign=middle;whiteSpace=wrap;rounded=0;" parent="Ws-m2PA2IL12tjnMowxy-83" vertex="1">
          <mxGeometry y="165" width="60" height="30" as="geometry" />
        </mxCell>
        <mxCell id="uKL7S93gOn8IDhQJY8BF-18" value="S6" style="text;html=1;align=center;verticalAlign=middle;whiteSpace=wrap;rounded=0;" parent="Ws-m2PA2IL12tjnMowxy-83" vertex="1">
          <mxGeometry y="205" width="60" height="30" as="geometry" />
        </mxCell>
        <mxCell id="uKL7S93gOn8IDhQJY8BF-19" value="S7" style="text;html=1;align=center;verticalAlign=middle;whiteSpace=wrap;rounded=0;" parent="Ws-m2PA2IL12tjnMowxy-83" vertex="1">
          <mxGeometry y="245" width="60" height="30" as="geometry" />
        </mxCell>
        <mxCell id="uKL7S93gOn8IDhQJY8BF-20" value="S8" style="text;html=1;align=center;verticalAlign=middle;whiteSpace=wrap;rounded=0;" parent="Ws-m2PA2IL12tjnMowxy-83" vertex="1">
          <mxGeometry y="285" width="60" height="30" as="geometry" />
        </mxCell>
        <mxCell id="uKL7S93gOn8IDhQJY8BF-21" value="S9" style="text;html=1;align=center;verticalAlign=middle;whiteSpace=wrap;rounded=0;" parent="Ws-m2PA2IL12tjnMowxy-83" vertex="1">
          <mxGeometry y="325" width="60" height="30" as="geometry" />
        </mxCell>
        <mxCell id="uKL7S93gOn8IDhQJY8BF-64" value="Sorting_network" style="rounded=0;whiteSpace=wrap;html=1;" parent="Ws-m2PA2IL12tjnMowxy-83" vertex="1">
          <mxGeometry x="110" y="25" width="100" height="100" as="geometry" />
        </mxCell>
        <mxCell id="uKL7S93gOn8IDhQJY8BF-65" value="" style="endArrow=none;html=1;rounded=0;exitX=1.01;exitY=0.096;exitDx=0;exitDy=0;exitPerimeter=0;entryX=0;entryY=0.25;entryDx=0;entryDy=0;" parent="Ws-m2PA2IL12tjnMowxy-83" source="uKL7S93gOn8IDhQJY8BF-64" edge="1">
          <mxGeometry width="50" height="50" relative="1" as="geometry">
            <mxPoint x="420" y="55" as="sourcePoint" />
            <mxPoint x="360" y="35" as="targetPoint" />
          </mxGeometry>
        </mxCell>
        <mxCell id="uKL7S93gOn8IDhQJY8BF-66" value="" style="endArrow=none;html=1;rounded=0;entryX=0;entryY=0.092;entryDx=0;entryDy=0;entryPerimeter=0;exitX=1;exitY=0.5;exitDx=0;exitDy=0;" parent="Ws-m2PA2IL12tjnMowxy-83" target="uKL7S93gOn8IDhQJY8BF-96" edge="1" source="uKL7S93gOn8IDhQJY8BF-64">
          <mxGeometry width="50" height="50" relative="1" as="geometry">
            <mxPoint x="280" y="75" as="sourcePoint" />
            <mxPoint x="441" y="74.66000000000003" as="targetPoint" />
            <Array as="points">
              <mxPoint x="280" y="75" />
              <mxPoint x="320" y="155" />
            </Array>
          </mxGeometry>
        </mxCell>
        <mxCell id="uKL7S93gOn8IDhQJY8BF-67" value="" style="endArrow=none;html=1;rounded=0;exitX=1.007;exitY=0.895;exitDx=0;exitDy=0;exitPerimeter=0;entryX=-0.019;entryY=0.167;entryDx=0;entryDy=0;entryPerimeter=0;" parent="Ws-m2PA2IL12tjnMowxy-83" source="uKL7S93gOn8IDhQJY8BF-64" target="ywr6gdVo3KpFQ-rbXmJj-103" edge="1">
          <mxGeometry width="50" height="50" relative="1" as="geometry">
            <mxPoint x="360" y="115" as="sourcePoint" />
            <mxPoint x="530.0000000000002" y="295.3000000000002" as="targetPoint" />
            <Array as="points">
              <mxPoint x="280" y="115" />
              <mxPoint x="310" y="295" />
            </Array>
          </mxGeometry>
        </mxCell>
        <mxCell id="uKL7S93gOn8IDhQJY8BF-68" value="min1" style="text;html=1;align=center;verticalAlign=middle;whiteSpace=wrap;rounded=0;" parent="Ws-m2PA2IL12tjnMowxy-83" vertex="1">
          <mxGeometry x="210" y="5" width="60" height="30" as="geometry" />
        </mxCell>
        <mxCell id="uKL7S93gOn8IDhQJY8BF-70" value="med1" style="text;html=1;align=center;verticalAlign=middle;whiteSpace=wrap;rounded=0;" parent="Ws-m2PA2IL12tjnMowxy-83" vertex="1">
          <mxGeometry x="210" y="45" width="60" height="30" as="geometry" />
        </mxCell>
        <mxCell id="uKL7S93gOn8IDhQJY8BF-71" value="max1" style="text;html=1;align=center;verticalAlign=middle;whiteSpace=wrap;rounded=0;" parent="Ws-m2PA2IL12tjnMowxy-83" vertex="1">
          <mxGeometry x="210" y="85" width="60" height="30" as="geometry" />
        </mxCell>
        <mxCell id="uKL7S93gOn8IDhQJY8BF-80" value="Sorting_network" style="rounded=0;whiteSpace=wrap;html=1;" parent="Ws-m2PA2IL12tjnMowxy-83" vertex="1">
          <mxGeometry x="110" y="143" width="100" height="100" as="geometry" />
        </mxCell>
        <mxCell id="uKL7S93gOn8IDhQJY8BF-81" value="" style="endArrow=none;html=1;rounded=0;exitX=0.995;exitY=0.13;exitDx=0;exitDy=0;exitPerimeter=0;entryX=0;entryY=0.75;entryDx=0;entryDy=0;" parent="Ws-m2PA2IL12tjnMowxy-83" source="uKL7S93gOn8IDhQJY8BF-80" edge="1">
          <mxGeometry width="50" height="50" relative="1" as="geometry">
            <mxPoint x="419" y="175" as="sourcePoint" />
            <mxPoint x="360" y="55" as="targetPoint" />
            <Array as="points">
              <mxPoint x="280" y="155" />
              <mxPoint x="320" y="55" />
            </Array>
          </mxGeometry>
        </mxCell>
        <mxCell id="uKL7S93gOn8IDhQJY8BF-82" value="" style="endArrow=none;html=1;rounded=0;entryX=0;entryY=0.5;entryDx=0;entryDy=0;exitX=1.022;exitY=0.517;exitDx=0;exitDy=0;exitPerimeter=0;" parent="Ws-m2PA2IL12tjnMowxy-83" target="uKL7S93gOn8IDhQJY8BF-96" edge="1" source="uKL7S93gOn8IDhQJY8BF-80">
          <mxGeometry width="50" height="50" relative="1" as="geometry">
            <mxPoint x="279" y="195" as="sourcePoint" />
            <mxPoint x="440" y="194.66000000000003" as="targetPoint" />
          </mxGeometry>
        </mxCell>
        <mxCell id="uKL7S93gOn8IDhQJY8BF-83" value="" style="endArrow=none;html=1;rounded=0;entryX=0.016;entryY=0.668;entryDx=0;entryDy=0;entryPerimeter=0;exitX=1.003;exitY=0.921;exitDx=0;exitDy=0;exitPerimeter=0;" parent="Ws-m2PA2IL12tjnMowxy-83" target="ywr6gdVo3KpFQ-rbXmJj-103" edge="1" source="uKL7S93gOn8IDhQJY8BF-80">
          <mxGeometry width="50" height="50" relative="1" as="geometry">
            <mxPoint x="280" y="235" as="sourcePoint" />
            <mxPoint x="528.9200000000001" y="324.5999999999999" as="targetPoint" />
            <Array as="points">
              <mxPoint x="280" y="235" />
              <mxPoint x="290" y="325" />
            </Array>
          </mxGeometry>
        </mxCell>
        <mxCell id="uKL7S93gOn8IDhQJY8BF-84" value="min2" style="text;html=1;align=center;verticalAlign=middle;whiteSpace=wrap;rounded=0;" parent="Ws-m2PA2IL12tjnMowxy-83" vertex="1">
          <mxGeometry x="210" y="125" width="60" height="30" as="geometry" />
        </mxCell>
        <mxCell id="uKL7S93gOn8IDhQJY8BF-85" value="med2" style="text;html=1;align=center;verticalAlign=middle;whiteSpace=wrap;rounded=0;" parent="Ws-m2PA2IL12tjnMowxy-83" vertex="1">
          <mxGeometry x="210" y="164.99" width="60" height="30" as="geometry" />
        </mxCell>
        <mxCell id="uKL7S93gOn8IDhQJY8BF-86" value="max2" style="text;html=1;align=center;verticalAlign=middle;whiteSpace=wrap;rounded=0;" parent="Ws-m2PA2IL12tjnMowxy-83" vertex="1">
          <mxGeometry x="210" y="205" width="60" height="30" as="geometry" />
        </mxCell>
        <mxCell id="uKL7S93gOn8IDhQJY8BF-87" value="Sorting_network" style="rounded=0;whiteSpace=wrap;html=1;" parent="Ws-m2PA2IL12tjnMowxy-83" vertex="1">
          <mxGeometry x="110" y="266.25" width="100" height="100" as="geometry" />
        </mxCell>
        <mxCell id="uKL7S93gOn8IDhQJY8BF-88" value="" style="endArrow=none;html=1;rounded=0;exitX=1.01;exitY=0.096;exitDx=0;exitDy=0;exitPerimeter=0;entryX=-0.011;entryY=0.829;entryDx=0;entryDy=0;entryPerimeter=0;" parent="Ws-m2PA2IL12tjnMowxy-83" source="uKL7S93gOn8IDhQJY8BF-87" target="ywr6gdVo3KpFQ-rbXmJj-99" edge="1">
          <mxGeometry width="50" height="50" relative="1" as="geometry">
            <mxPoint x="420" y="295" as="sourcePoint" />
            <mxPoint x="530" y="75" as="targetPoint" />
            <Array as="points">
              <mxPoint x="280" y="275" />
              <mxPoint x="360" y="85" />
              <mxPoint x="410" y="85" />
            </Array>
          </mxGeometry>
        </mxCell>
        <mxCell id="uKL7S93gOn8IDhQJY8BF-89" value="" style="endArrow=none;html=1;rounded=0;exitX=1;exitY=0.5;exitDx=0;exitDy=0;entryX=0;entryY=0.9;entryDx=0;entryDy=0;entryPerimeter=0;" parent="Ws-m2PA2IL12tjnMowxy-83" source="uKL7S93gOn8IDhQJY8BF-87" target="uKL7S93gOn8IDhQJY8BF-96" edge="1">
          <mxGeometry width="50" height="50" relative="1" as="geometry">
            <mxPoint x="360" y="314.6600000000001" as="sourcePoint" />
            <mxPoint x="441" y="314.6600000000001" as="targetPoint" />
            <Array as="points">
              <mxPoint x="280" y="315" />
              <mxPoint x="320" y="236" />
            </Array>
          </mxGeometry>
        </mxCell>
        <mxCell id="uKL7S93gOn8IDhQJY8BF-90" value="" style="endArrow=none;html=1;rounded=0;exitX=1.007;exitY=0.888;exitDx=0;exitDy=0;exitPerimeter=0;entryX=-0.024;entryY=0.81;entryDx=0;entryDy=0;entryPerimeter=0;" parent="Ws-m2PA2IL12tjnMowxy-83" source="uKL7S93gOn8IDhQJY8BF-87" target="ywr6gdVo3KpFQ-rbXmJj-104" edge="1">
          <mxGeometry width="50" height="50" relative="1" as="geometry">
            <mxPoint x="360" y="355" as="sourcePoint" />
            <mxPoint x="527.72" y="354.0000000000002" as="targetPoint" />
          </mxGeometry>
        </mxCell>
        <mxCell id="uKL7S93gOn8IDhQJY8BF-91" value="min3" style="text;html=1;align=center;verticalAlign=middle;whiteSpace=wrap;rounded=0;" parent="Ws-m2PA2IL12tjnMowxy-83" vertex="1">
          <mxGeometry x="210" y="245" width="60" height="30" as="geometry" />
        </mxCell>
        <mxCell id="uKL7S93gOn8IDhQJY8BF-92" value="med3" style="text;html=1;align=center;verticalAlign=middle;whiteSpace=wrap;rounded=0;" parent="Ws-m2PA2IL12tjnMowxy-83" vertex="1">
          <mxGeometry x="210" y="285" width="60" height="30" as="geometry" />
        </mxCell>
        <mxCell id="uKL7S93gOn8IDhQJY8BF-93" value="max3" style="text;html=1;align=center;verticalAlign=middle;whiteSpace=wrap;rounded=0;" parent="Ws-m2PA2IL12tjnMowxy-83" vertex="1">
          <mxGeometry x="210" y="325" width="60" height="30" as="geometry" />
        </mxCell>
        <mxCell id="uKL7S93gOn8IDhQJY8BF-96" value="Sorting_network" style="rounded=0;whiteSpace=wrap;html=1;" parent="Ws-m2PA2IL12tjnMowxy-83" vertex="1">
          <mxGeometry x="360" y="145" width="90" height="100" as="geometry" />
        </mxCell>
        <mxCell id="uKL7S93gOn8IDhQJY8BF-104" value="" style="endArrow=none;html=1;rounded=0;exitX=1;exitY=0.5;exitDx=0;exitDy=0;" parent="Ws-m2PA2IL12tjnMowxy-83" source="uKL7S93gOn8IDhQJY8BF-96" edge="1">
          <mxGeometry width="50" height="50" relative="1" as="geometry">
            <mxPoint x="860" y="255" as="sourcePoint" />
            <mxPoint x="508" y="195" as="targetPoint" />
          </mxGeometry>
        </mxCell>
        <mxCell id="uKL7S93gOn8IDhQJY8BF-107" value="Sorting_network" style="rounded=0;whiteSpace=wrap;html=1;" parent="Ws-m2PA2IL12tjnMowxy-83" vertex="1">
          <mxGeometry x="510" y="143" width="90" height="100" as="geometry" />
        </mxCell>
        <mxCell id="uKL7S93gOn8IDhQJY8BF-108" value="" style="endArrow=none;html=1;rounded=0;entryX=-0.011;entryY=0.123;entryDx=0;entryDy=0;entryPerimeter=0;exitX=0.994;exitY=0.67;exitDx=0;exitDy=0;exitPerimeter=0;" parent="Ws-m2PA2IL12tjnMowxy-83" source="ywr6gdVo3KpFQ-rbXmJj-99" target="uKL7S93gOn8IDhQJY8BF-107" edge="1">
          <mxGeometry width="50" height="50" relative="1" as="geometry">
            <mxPoint x="650.5999999999999" y="74.05000000000018" as="sourcePoint" />
            <mxPoint x="730" y="145" as="targetPoint" />
            <Array as="points">
              <mxPoint x="500" y="75" />
              <mxPoint x="500" y="155" />
            </Array>
          </mxGeometry>
        </mxCell>
        <mxCell id="uKL7S93gOn8IDhQJY8BF-110" value="" style="endArrow=none;html=1;rounded=0;entryX=0;entryY=0.918;entryDx=0;entryDy=0;entryPerimeter=0;exitX=1;exitY=0.146;exitDx=0;exitDy=0;exitPerimeter=0;" parent="Ws-m2PA2IL12tjnMowxy-83" source="ywr6gdVo3KpFQ-rbXmJj-104" target="uKL7S93gOn8IDhQJY8BF-107" edge="1">
          <mxGeometry width="50" height="50" relative="1" as="geometry">
            <mxPoint x="650.0000000000002" y="315" as="sourcePoint" />
            <mxPoint x="690" y="295" as="targetPoint" />
            <Array as="points">
              <mxPoint x="500" y="315" />
              <mxPoint x="500" y="235" />
            </Array>
          </mxGeometry>
        </mxCell>
        <mxCell id="uKL7S93gOn8IDhQJY8BF-111" value="" style="endArrow=none;html=1;rounded=0;exitX=0.998;exitY=0.523;exitDx=0;exitDy=0;exitPerimeter=0;" parent="Ws-m2PA2IL12tjnMowxy-83" source="uKL7S93gOn8IDhQJY8BF-107" edge="1">
          <mxGeometry width="50" height="50" relative="1" as="geometry">
            <mxPoint x="890" y="215" as="sourcePoint" />
            <mxPoint x="640" y="195" as="targetPoint" />
          </mxGeometry>
        </mxCell>
        <mxCell id="uKL7S93gOn8IDhQJY8BF-119" value="med_o" style="text;html=1;align=center;verticalAlign=middle;whiteSpace=wrap;rounded=0;" parent="Ws-m2PA2IL12tjnMowxy-83" vertex="1">
          <mxGeometry x="630" y="165" width="60" height="30" as="geometry" />
        </mxCell>
        <mxCell id="ywr6gdVo3KpFQ-rbXmJj-99" value="Node" style="rounded=0;whiteSpace=wrap;html=1;" parent="Ws-m2PA2IL12tjnMowxy-83" vertex="1">
          <mxGeometry x="430" y="35" width="40" height="60" as="geometry" />
        </mxCell>
        <mxCell id="ywr6gdVo3KpFQ-rbXmJj-100" value="" style="endArrow=none;html=1;rounded=0;exitX=1;exitY=0.75;exitDx=0;exitDy=0;entryX=0;entryY=0.327;entryDx=0;entryDy=0;entryPerimeter=0;" parent="Ws-m2PA2IL12tjnMowxy-83" target="ywr6gdVo3KpFQ-rbXmJj-99" edge="1">
          <mxGeometry width="50" height="50" relative="1" as="geometry">
            <mxPoint x="400" y="55" as="sourcePoint" />
            <mxPoint x="660" y="26.25" as="targetPoint" />
          </mxGeometry>
        </mxCell>
        <mxCell id="ywr6gdVo3KpFQ-rbXmJj-103" value="Node" style="rounded=0;whiteSpace=wrap;html=1;" parent="Ws-m2PA2IL12tjnMowxy-83" vertex="1">
          <mxGeometry x="360" y="285" width="40" height="60" as="geometry" />
        </mxCell>
        <mxCell id="ywr6gdVo3KpFQ-rbXmJj-104" value="Node" style="rounded=0;whiteSpace=wrap;html=1;" parent="Ws-m2PA2IL12tjnMowxy-83" vertex="1">
          <mxGeometry x="420" y="306.25" width="40" height="60" as="geometry" />
        </mxCell>
        <mxCell id="ywr6gdVo3KpFQ-rbXmJj-105" value="" style="endArrow=none;html=1;rounded=0;exitX=1.004;exitY=0.466;exitDx=0;exitDy=0;exitPerimeter=0;" parent="Ws-m2PA2IL12tjnMowxy-83" edge="1">
          <mxGeometry width="50" height="50" relative="1" as="geometry">
            <mxPoint x="399.9600000000001" y="314.9000000000001" as="sourcePoint" />
            <mxPoint x="420" y="315" as="targetPoint" />
          </mxGeometry>
        </mxCell>
        <mxCell id="wZi2HciYngVircecvjnZ-4" value="" style="group" parent="Ws-m2PA2IL12tjnMowxy-83" vertex="1" connectable="0">
          <mxGeometry x="330" y="15" width="9" height="360" as="geometry" />
        </mxCell>
        <mxCell id="wZi2HciYngVircecvjnZ-5" value="" style="rounded=0;whiteSpace=wrap;html=1;" parent="wZi2HciYngVircecvjnZ-4" vertex="1">
          <mxGeometry width="9" height="360" as="geometry" />
        </mxCell>
        <mxCell id="wZi2HciYngVircecvjnZ-6" value="" style="triangle;whiteSpace=wrap;html=1;rotation=270;" parent="wZi2HciYngVircecvjnZ-4" vertex="1">
          <mxGeometry x="2" y="355.38461538461536" width="5" height="4.615384615384615" as="geometry" />
        </mxCell>
        <mxCell id="wZi2HciYngVircecvjnZ-8" value="" style="group" parent="Ws-m2PA2IL12tjnMowxy-83" vertex="1" connectable="0">
          <mxGeometry x="480" y="5" width="9" height="390" as="geometry" />
        </mxCell>
        <mxCell id="Ws-m2PA2IL12tjnMowxy-76" value="" style="group" vertex="1" connectable="0" parent="wZi2HciYngVircecvjnZ-8">
          <mxGeometry y="10" width="9" height="360" as="geometry" />
        </mxCell>
        <mxCell id="Ws-m2PA2IL12tjnMowxy-77" value="" style="rounded=0;whiteSpace=wrap;html=1;" vertex="1" parent="Ws-m2PA2IL12tjnMowxy-76">
          <mxGeometry width="9" height="360" as="geometry" />
        </mxCell>
        <mxCell id="Ws-m2PA2IL12tjnMowxy-78" value="" style="triangle;whiteSpace=wrap;html=1;rotation=270;" vertex="1" parent="Ws-m2PA2IL12tjnMowxy-76">
          <mxGeometry x="2" y="355.38461538461536" width="5" height="4.615384615384615" as="geometry" />
        </mxCell>
        <mxCell id="Ws-m2PA2IL12tjnMowxy-71" value="Node" style="rounded=0;whiteSpace=wrap;html=1;" vertex="1" parent="Ws-m2PA2IL12tjnMowxy-83">
          <mxGeometry x="360" y="15" width="40" height="60" as="geometry" />
        </mxCell>
        <mxCell id="Ws-m2PA2IL12tjnMowxy-72" value="" style="group" vertex="1" connectable="0" parent="Ws-m2PA2IL12tjnMowxy-83">
          <mxGeometry x="80" y="15" width="9" height="360" as="geometry" />
        </mxCell>
        <mxCell id="Ws-m2PA2IL12tjnMowxy-73" value="" style="rounded=0;whiteSpace=wrap;html=1;" vertex="1" parent="Ws-m2PA2IL12tjnMowxy-72">
          <mxGeometry width="9" height="360" as="geometry" />
        </mxCell>
        <mxCell id="Ws-m2PA2IL12tjnMowxy-74" value="" style="triangle;whiteSpace=wrap;html=1;rotation=270;" vertex="1" parent="Ws-m2PA2IL12tjnMowxy-72">
          <mxGeometry x="2" y="355.38461538461536" width="5" height="4.615384615384615" as="geometry" />
        </mxCell>
        <mxCell id="Ws-m2PA2IL12tjnMowxy-79" value="" style="group" vertex="1" connectable="0" parent="Ws-m2PA2IL12tjnMowxy-83">
          <mxGeometry x="610" y="15" width="9" height="360" as="geometry" />
        </mxCell>
        <mxCell id="Ws-m2PA2IL12tjnMowxy-80" value="" style="rounded=0;whiteSpace=wrap;html=1;" vertex="1" parent="Ws-m2PA2IL12tjnMowxy-79">
          <mxGeometry width="9" height="360" as="geometry" />
        </mxCell>
        <mxCell id="Ws-m2PA2IL12tjnMowxy-81" value="" style="triangle;whiteSpace=wrap;html=1;rotation=270;" vertex="1" parent="Ws-m2PA2IL12tjnMowxy-79">
          <mxGeometry x="2" y="355.38461538461536" width="5" height="4.615384615384615" as="geometry" />
        </mxCell>
      </root>
    </mxGraphModel>
  </diagram>
</mxfile>
